<?xml version="1.0" encoding="UTF-8"?>
<svg width="32px" height="32px" viewBox="0 0 32 32" xmlns="http://www.w3.org/2000/svg" xmlns:xlink="http://www.w3.org/1999/xlink" version="1.1">
 <!-- Generated by Pixelmator Pro 2.0.5 -->
 <path id="路径" d="M16 0 C7.16 0 0 7.16 0 16 0 23.08 4.58 29.06 10.94 31.18 11.74 31.32 12.04 30.84 12.04 30.42 12.04 30.04 12.02 28.78 12.02 27.44 8 28.18 6.96 26.46 6.64 25.56 6.46 25.1 5.68 23.68 5 23.3 4.44 23 3.64 22.26 4.98 22.24 6.24 22.22 7.14 23.4 7.44 23.88 8.88 26.3 11.18 25.62 12.1 25.2 12.24 24.16 12.66 23.46 13.12 23.06 9.56 22.66 5.84 21.28 5.84 15.16 5.84 13.42 6.46 11.98 7.48 10.86 7.32 10.46 6.76 8.82 7.64 6.62 7.64 6.62 8.98 6.2 12.04 8.26 13.32 7.9 14.68 7.72 16.04 7.72 17.4 7.72 18.76 7.9 20.04 8.26 23.1 6.18 24.44 6.62 24.44 6.62 25.32 8.82 24.76 10.46 24.6 10.86 25.62 11.98 26.24 13.4 26.24 15.16 26.24 21.3 22.5 22.66 18.94 23.06 19.52 23.56 20.02 24.52 20.02 26.02 20.02 28.16 20 29.88 20 30.42 20 30.84 20.3 31.34 21.1 31.18 27.42 29.06 32 23.06 32 16 32 7.16 24.84 0 16 0 Z" fill="#24292e" fill-opacity="1" stroke="none"/>
 <path id="椭圆" d="M32 16 C32 7.163 24.837 0 16 0 7.163 0 0 7.163 0 16 0 24.837 7.163 32 16 32 24.837 32 32 24.837 32 16 Z" fill="none" stroke="#ffffff" stroke-width="2" stroke-opacity="0.557" stroke-linejoin="round" stroke-linecap="round"/>
</svg>
